<?xml version="1.0" encoding="utf-8"?>
<svg viewBox="0 0 160 271" width="160" height="271" xmlns="http://www.w3.org/2000/svg">
  <g transform="matrix(0.1000000044703484, 0, 0, -0.1000000044703484, -3.552713678800501e-15, 271.0000080764293)" fill="#000000" stroke="none">
    <path d="M1056 2621 c-3 -4 -13 -53 -22 -108 l-17 -101 -37 -6 c-21 -3 -46 -9&#10;-56 -13 -14 -5 -16 -3 -11 11 4 10 10 42 13 72 6 45 4 54 -9 54 -17 0 -21 -9&#10;-37 -95 -11 -58 -14 -62 -60 -88 -106 -60 -210 -180 -244 -285 -27 -80 -106&#10;-491 -106 -548 0 -124 65 -169 308 -215 58 -11 63 -14 60 -36 -4 -28 2 -27&#10;-99 -18 -72 6 -84 5 -108 -12 -14 -11 -42 -25 -63 -32 -49 -16 -70 -61 -67&#10;-145 2 -69 -3 -86 -30 -86 -16 0 -17 7 -13 49 4 45 2 51 -34 91 -22 24 -56 54&#10;-78 67 -35 22 -38 27 -31 56 3 18 9 55 12 83 5 44 2 55 -16 73 -29 29 -86 29&#10;-105 -1 -13 -21 -17 -35 -32 -105 -4 -19 -11 -23 -40 -23 -75 0 -88 -20 -114&#10;-171 -23 -135 -18 -158 46 -188 71 -34 153 -52 237 -52 86 -1 122 14 133 55 4&#10;16 11 22 22 19 9 -2 33 4 52 14 66 34 67 32 72 -155 4 -163 4 -168 -19 -195&#10;-34 -42 -32 -100 6 -138 25 -24 38 -29 79 -29 l51 0 -37 -105 c-35 -99 -38&#10;-105 -65 -105 -40 0 -102 -34 -128 -72 -17 -23 -23 -46 -24 -83 l0 -50 159 0&#10;c137 0 160 2 169 17 18 28 -10 98 -59 145 l-44 42 37 106 c43 122 21 111 231&#10;120 l134 6 -6 -28 c-3 -15 -8 -62 -12 -104 -3 -42 -9 -81 -13 -86 -3 -6 -23&#10;-16 -43 -22 -40 -13 -94 -68 -104 -105 -3 -13 -4 -38 -2 -57 l3 -34 160 0 160&#10;0 3 45 c2 37 -2 53 -26 86 -16 22 -46 49 -67 58 l-37 18 6 62 c19 180 14 165&#10;58 172 22 4 52 17 68 30 30 25 55 31 65 14 3 -6 20 -17 36 -25 27 -14 33 -14&#10;63 0 18 9 47 35 63 58 52 72 141 240 148 280 6 33 4 40 -21 62 -103 89 -144&#10;117 -200 137 -58 21 -64 25 -64 51 0 31 -39 77 -65 77 -9 0 -31 11 -50 25 -20&#10;16 -58 30 -96 37 -76 14 -72 12 -65 35 6 18 10 18 138 -4 184 -31 243 -20 294&#10;56 20 31 35 90 75 295 27 141 49 278 49 304 0 142 -57 279 -161 384 -81 83&#10;-178 132 -288 148 -41 6 -76 12 -78 14 -2 2 3 44 11 92 9 49 16 95 16 102 0&#10;14 -26 17 -34 3z m208 -294 c182 -86 303 -296 280 -487 -9 -67 -83 -460 -95&#10;-497 -6 -18 -27 -46 -46 -64 -36 -31 -37 -32 -117 -26 -84 6 -549 95 -645 123&#10;-94 27 -131 66 -131 137 0 19 22 143 49 275 53 265 78 334 149 413 56 62 134&#10;114 217 145 60 21 84 24 165 22 86 -3 103 -7 174 -41z m-980 -1007 c0 -25 -3&#10;-57 -7 -73 -7 -27 -8 -27 -37 -12 -28 15 -30 18 -24 58 9 59 21 79 47 75 19&#10;-3 22 -9 21 -48z m669 -55 c31 -5 37 -10 37 -31 0 -24 -2 -25 -47 -18 -61 8&#10;-63 10 -63 40 0 19 4 24 18 21 9 -3 34 -8 55 -12z m-725 -75 c46 -22 62 -34&#10;62 -50 0 -24 4 -24 -76 -4 -45 12 -68 14 -76 6 -13 -13 10 -25 84 -41 32 -7&#10;59 -15 62 -19 2 -4 1 -22 -1 -40 l-6 -34 -77 7 c-55 5 -80 3 -85 -5 -11 -18&#10;-2 -21 79 -27 67 -5 74 -8 66 -23 -23 -42 -130 -52 -185 -16 -30 20 -31 41 -9&#10;157 24 129 49 143 162 89z m691 -14 c211 -31 226 -35 248 -60 19 -23 22 -33&#10;16 -74 -4 -26 -8 -124 -8 -218 l0 -171 -268 -13 c-147 -7 -271 -10 -275 -6 -9&#10;10 -9 441 1 498 8 48 28 78 50 78 7 0 113 -15 236 -34z m-335 -98 c-4 -46 -8&#10;-84 -9 -86 -2 -2 -10 5 -20 14 -29 30 -8 154 26 154 6 0 7 -35 3 -82z m-200&#10;12 c20 -22 36 -43 36 -48 -2 -36 -31 -136 -42 -143 -7 -5 -40 -9 -72 -9 l-59&#10;0 26 24 c28 26 43 70 53 159 4 31 10 57 14 57 4 0 24 -18 44 -40z m870 -16&#10;c11 -10 16 -34 16 -70 0 -43 -5 -59 -22 -76 l-23 -23 -3 30 c-4 31 7 155 13&#10;155 2 0 11 -7 19 -16z m152 -132 c13 -7 12 -11 -8 -24 -13 -8 -57 -63 -98&#10;-121 -41 -59 -78 -107 -81 -107 -3 0 -6 41 -8 90 -2 86 -1 90 19 90 30 0 80&#10;53 80 84 0 25 0 25 40 11 22 -8 48 -18 56 -23z m100 -78 c34 -20 44 -32 44&#10;-51 0 -14 -27 -76 -61 -137 -61 -111 -111 -176 -136 -176 -36 0 -123 79 -123&#10;111 0 15 158 240 184 261 28 23 40 22 92 -8z m-326 -274 c4 -8 12 -25 18 -37&#10;10 -19 9 -26 -8 -43 -11 -11 -23 -20 -27 -20 -5 0 -125 -7 -268 -15 -143 -8&#10;-263 -15 -268 -15 -16 0 -47 41 -47 63 0 51 21 57 261 71 276 17 330 16 339&#10;-4z m-526 -434 c35 -15 76 -63 76 -90 0 -14 -17 -16 -126 -16 l-125 0 7 23&#10;c12 38 34 64 67 81 40 19 59 20 101 2z m452 -2 c31 -15 74 -68 74 -92 0 -7&#10;-44 -12 -125 -14 -139 -3 -142 -2 -105 60 20 33 67 61 103 62 11 0 34 -7 53&#10;-16z" style="fill: rgb(0, 112, 211);"/>
    <path d="M790 2157 c-136 -72 -87 -258 72 -273 104 -10 184 61 175 155 -6 55&#10;-32 90 -87 119 -56 28 -105 28 -160 -1z m133 -28 c67 -35 91 -93 62 -149 -26&#10;-50 -107 -75 -158 -49 -67 35 -91 93 -62 149 26 50 107 75 158 49z" style="fill: rgb(0, 112, 211);"/>
    <path d="M860 2050 c-11 -11 -20 -28 -20 -38 0 -41 69 -69 98 -40 18 18 14 63&#10;-6 81 -25 22 -48 21 -72 -3z" style="fill: rgb(0, 112, 211);"/>
    <path d="M1235 2092 c-141 -66 -94 -263 67 -279 161 -15 240 165 115 261 -48&#10;37 -126 44 -182 18z m128 -33 c67 -35 91 -93 62 -149 -26 -50 -107 -75 -158&#10;-49 -67 35 -91 93 -62 149 26 50 107 75 158 49z" style="fill: rgb(0, 112, 211);"/>
    <path d="M1256 1999 c-14 -11 -26 -29 -26 -39 0 -24 47 -61 68 -53 31 11 42&#10;25 42 53 0 48 -46 69 -84 39z" style="fill: rgb(0, 112, 211);"/>
    <path d="M685 1720 c-15 -24 23 -39 170 -66 130 -25 175 -29 335 -29 159 0&#10;190 3 218 18 65 36 31 56 -54 31 -48 -14 -83 -16 -189 -11 -106 5 -358 40&#10;-451 63 -12 3 -25 0 -29 -6z" style="fill: rgb(0, 112, 211);"/>
    <path d="M778 1073 c-27 -28 -27 -28 -8 -53 26 -33 25 -42 -5 -70 l-24 -23 21&#10;-29 20 -29 -27 -29 -27 -28 22 -30 23 -31 33 25 c31 24 33 24 43 7 28 -49 28&#10;-49 59 -20 l30 28 22 -31 22 -31 29 27 28 27 -19 28 c-26 35 -25 41 5 69 l24&#10;23 -21 29 -20 29 27 29 27 28 -22 30 -23 31 -33 -25 -32 -25 -18 30 c-10 17&#10;-21 31 -24 31 -4 0 -17 -12 -31 -26 l-24 -25 -25 31 -25 31 -27 -28z m100 -69&#10;l19 -27 31 23 c18 13 33 22 35 19 37 -45 38 -52 10 -81 l-27 -28 23 -31 23&#10;-31 -26 -27 -27 -26 -24 30 -24 29 -24 -22 c-30 -29 -39 -28 -60 7 -16 27 -16&#10;29 9 52 l26 24 23 -30 24 -29 26 24 c30 28 31 37 4 69 l-20 24 -27 -27 -28&#10;-26 -23 31 -23 31 23 24 c28 30 33 30 57 -2z" style="fill: rgb(0, 112, 211);"/>
  </g>
</svg>